<?xml version="1.0" encoding="UTF-8"?>
<svg xmlns="http://www.w3.org/2000/svg" width="68.100006" height="68.100006" viewBox="0 0 24.0 24.0">
  <path d="M8.6473,4.9898L8.6473,6.8537C8.6473,7.3232 8.2667,7.7037 7.7973,7.7037C7.3278,7.7037 6.9473,7.3232 6.9473,6.8537L6.9473,4.9898L4.5759,4.9898L4.5759,19.05L19.4241,19.05L19.4241,4.9898L17.0527,4.9898L17.0527,6.8537C17.0527,7.3232 16.6722,7.7037 16.2027,7.7037C15.7333,7.7037 15.3527,7.3232 15.3527,6.8537L15.3527,4.9898L8.6473,4.9898ZM21.1241,19.112C21.1241,20.0148 20.3889,20.75 19.4861,20.75L4.5139,20.75C3.6111,20.75 2.8759,20.0148 2.8759,19.112L2.8759,4.9278C2.8759,4.025 3.6111,3.2898 4.5139,3.2898L19.4861,3.2898C20.3889,3.2898 21.1241,4.025 21.1241,4.9278L21.1241,19.112ZM16.0575,12.2682C15.4783,12.2682 15.0069,11.7967 15.0069,11.2175C15.0069,10.6384 15.4783,10.1669 16.0575,10.1669C16.6372,10.1669 17.1087,10.6384 17.1087,11.2175C17.1087,11.7967 16.6372,12.2682 16.0575,12.2682ZM7.9415,15.7624C7.3618,15.7624 6.8908,15.2909 6.8908,14.7118C6.8908,14.1326 7.3618,13.6611 7.9415,13.6611C8.5212,13.6611 8.9921,14.1326 8.9921,14.7118C8.9921,15.2909 8.5212,15.7624 7.9415,15.7624ZM11.3475,15.7624C10.7683,15.7624 10.2968,15.2909 10.2968,14.7118C10.2968,14.1326 10.7683,13.6611 11.3475,13.6611C11.9266,13.6611 12.3981,14.1326 12.3981,14.7118C12.3981,15.2909 11.9266,15.7624 11.3475,15.7624ZM12.6511,12.2682C12.0719,12.2682 11.6004,11.7967 11.6004,11.2175C11.6004,10.6384 12.0719,10.1669 12.6511,10.1669C13.2313,10.1669 13.7023,10.6384 13.7023,11.2175C13.7023,11.7967 13.2313,12.2682 12.6511,12.2682Z" fill="#aaa" stroke-width="1.0" />
</svg>
