<?xml version="1.0" encoding="UTF-8"?>
<svg xmlns="http://www.w3.org/2000/svg" width="68.100006" height="68.100006" viewBox="0 0 24.0 24.0">
  <path d="M8.5447,5.6868L8.5447,4.0457C8.5447,3.2483 9.193,2.6 9.9904,2.6L14.2644,2.6C15.0617,2.6 15.7101,3.2483 15.7101,4.0457L15.7101,5.6868L20.152,5.6868L20.152,7.6284L18.9791,7.6284L18.0349,19.7941C17.9649,20.6903 17.1983,21.4 16.2996,21.4L7.956,21.4C7.0573,21.4 6.2907,20.6903 6.2206,19.7936L5.2773,7.6284L4.1029,7.6284L4.1029,5.6868L8.5447,5.6868ZM10.4863,5.6868L13.7684,5.6868L13.7684,4.5416L10.4863,4.5416L10.4863,5.6868ZM7.2247,7.6284L8.1421,19.4584L16.1135,19.4584L17.0316,7.6284L7.2247,7.6284ZM12.9334,9.4129L14.875,9.4129L14.875,17.4636L12.9334,17.4636L12.9334,9.4129ZM9.3816,9.4129L11.3232,9.4129L11.3232,17.4636L9.3816,17.4636L9.3816,9.4129Z" fill="#FAFAFA" stroke="#000000" stroke-width="0.5" stroke-opacity="0.35" />
</svg>
