<?xml version="1.0" encoding="UTF-8"?>
<svg xmlns="http://www.w3.org/2000/svg" width="68.100006" height="68.100006" viewBox="0 0 24.0 24.0">
  <path d="M12.0001,5.5098C13.0215,4.1598 14.5685,3.35 16.245,3.35C19.2526,3.35 21.6838,5.9298 21.6838,9.1055C21.6838,10.1806 21.404,11.2133 20.8752,12.1246C20.8177,12.2112 20.7311,12.341 20.6436,12.4708C20.641,12.4747 20.641,12.4747 20.6383,12.4787C20.5489,12.6113 20.4799,12.7121 20.438,12.7709C19.0559,14.7043 12.3793,20.65 12,20.65C11.6213,20.65 4.9445,14.704 3.5626,12.7705C3.5209,12.712 3.4517,12.6111 3.3619,12.4782C3.3595,12.4746 3.3595,12.4746 3.3571,12.4711C3.2694,12.3413 3.1825,12.2116 3.1164,12.1115C2.5961,11.2124 2.3162,10.1798 2.3162,9.1055C2.3162,5.9302 4.7476,3.35 7.754,3.35C9.4321,3.35 10.9789,4.1596 12.0001,5.5098ZM12.0015,18.063C14.9798,15.5441 17.8331,12.8884 18.7691,11.5787C18.8244,11.5011 18.987,11.2606 19.1298,11.0478C19.4591,10.464 19.6331,9.7932 19.6331,9.1055C19.6331,7.0584 18.1082,5.4008 16.245,5.4008C15.1662,5.4008 14.1398,5.9737 13.5007,6.9372L12,9.1998L10.4993,6.9371C9.8604,5.9737 8.8337,5.4008 7.754,5.4008C5.8917,5.4008 4.3669,7.0586 4.3669,9.1055C4.3669,9.7931 4.5409,10.4637 4.8602,11.0309C5.0421,11.3025 5.1801,11.5068 5.2329,11.5814C6.1946,12.9263 8.9495,15.4831 12.0015,18.063Z" fill="#FAFAFA" stroke="#000000" stroke-width="0.5" stroke-opacity="0.35" />
</svg>
