<?xml version="1.0" encoding="UTF-8"?>
<svg xmlns="http://www.w3.org/2000/svg" width="68.100006" height="68.100006" viewBox="0 0 24.0 24.0">
  <path d="M3.7662,12.6255C3.6532,12.4665 3.333,11.9863 3.333,11.9863C2.8479,11.1484 2.5662,10.1621 2.5662,9.1055C2.5662,6.0649 4.8895,3.6 7.7543,3.6C9.511,3.6 11.0613,4.5258 12,5.9419C12.9395,4.5258 14.4903,3.6 16.245,3.6C19.1113,3.6 21.4338,6.0649 21.4338,9.1055C21.4338,10.1621 21.1526,11.1484 20.667,11.9863C20.667,11.9863 20.348,12.4665 20.2346,12.6255C18.4641,15.1026 12.0096,20.4075 12,20.4C11.9904,20.4075 5.5372,15.1026 3.7662,12.6255Z" fill="#cb4542" stroke-width="1.0" />
</svg>
