<?xml version="1.0" encoding="UTF-8"?>
<svg xmlns="http://www.w3.org/2000/svg" viewBox="0 0 24.0 24.0">
  <path d="M4.7663,18.3561L4.7663,19.2337L19.2337,19.2337L19.2337,15.5713L15.9952,12.2583L12.4627,15.7189C11.9721,16.2006 11.1794,16.2013 10.6876,15.7206L9.1539,14.2191L4.7663,18.3561ZM4.7663,16.272L8.2787,12.9602C8.7743,12.4912 9.5631,12.4986 10.0509,12.9754L11.5742,14.4666L15.1189,10.9942C15.6143,10.5078 16.4128,10.5162 16.8977,11.0124L19.2337,13.4021L19.2337,4.7663L4.7663,4.7663L4.7663,16.272ZM20.75,19.2426C20.75,20.0734 20.0734,20.75 19.2426,20.75L4.7574,20.75C3.9266,20.75 3.25,20.0734 3.25,19.2426L3.25,4.7574C3.25,3.9266 3.9266,3.25 4.7574,3.25L19.2426,3.25C20.0734,3.25 20.75,3.9266 20.75,4.7574L20.75,19.2426ZM8.7455,11.3623C7.3626,11.3623 6.2391,10.2388 6.2391,8.8559C6.2391,7.473 7.3626,6.3495 8.7455,6.3495C10.1283,6.3495 11.2509,7.4729 11.2509,8.8559C11.2509,10.2388 10.1283,11.3623 8.7455,11.3623ZM8.7455,9.8459C9.2907,9.8459 9.7346,9.4017 9.7346,8.8559C9.7346,8.3101 9.2907,7.8658 8.7455,7.8658C8.2,7.8658 7.7554,8.3104 7.7554,8.8559C7.7554,9.4014 8.2,9.8459 8.7455,9.8459Z" fill="#aaa" stroke-width="1.0" />
</svg>
