<?xml version="1.0" encoding="UTF-8"?>
<svg xmlns="http://www.w3.org/2000/svg" width="102.15" height="102.15" viewBox="0 0 36.0 36.0">
  <path d="M9.462,11.024C10.064,11.024 10.549,11.505 10.549,12.097L10.549,16.923L17.319,11.559C17.553,11.409 17.795,11.333 18.037,11.333C18.575,11.333 19.115,11.743 19.115,12.525L19.115,16.131L25.828,11.227C26.061,11.076 26.303,11 26.545,11C27.083,11 27.625,11.411 27.625,12.192L27.625,23.807C27.625,24.588 27.083,25 26.545,25C26.303,25 26.063,24.923 25.828,24.773L19.115,19.866L19.115,23.472C19.115,24.256 18.575,24.665 18.037,24.665C17.795,24.665 17.554,24.589 17.319,24.441L10.549,19.074L10.549,23.901C10.549,24.494 10.064,24.974 9.462,24.974C8.862,24.974 8.375,24.494 8.375,23.901L8.375,12.097C8.375,11.505 8.862,11.024 9.462,11.024" fill="#FAFAFF" stroke-width="1.0" />
</svg>
