<?xml version="1.0" encoding="UTF-8"?>
<svg xmlns="http://www.w3.org/2000/svg" width="68.100006" height="68.100006" viewBox="0 0 24.0 24.0">
  <path d="M11.9824,2.8872C13.1422,2.8872 14.0836,3.8138 14.0804,4.9572C14.0804,6.1009 13.1393,7.0272 11.9824,7.0272C10.8255,7.0272 9.8844,6.1009 9.8844,4.9572C9.8844,3.8135 10.8255,2.8872 11.9824,2.8872ZM11.9824,9.6072C13.1422,9.6072 14.0836,10.5338 14.0804,11.6772C14.0804,12.8209 13.1393,13.7472 11.9824,13.7472C10.8255,13.7472 9.8844,12.8209 9.8844,11.6772C9.8844,10.5335 10.8255,9.6072 11.9824,9.6072ZM11.9824,16.3272C13.1422,16.3272 14.0836,17.2538 14.0804,18.3972C14.0804,19.5409 13.1393,20.4672 11.9824,20.4672C10.8255,20.4672 9.8844,19.5409 9.8844,18.3972C9.8844,17.2535 10.8255,16.3272 11.9824,16.3272Z" fill="#FAFAFA" stroke="#000000" stroke-width="0.5" stroke-opacity="0.35" />
</svg>
