<svg xmlns="http://www.w3.org/2000/svg" viewBox="0.4 0 24.0 24.0">
  <path d="M13.2047,14.7091L7.7047,14.7091C7.1517,14.7091 6.7047,14.2611 6.7047,13.7091L6.7047,8.8741C6.7047,8.3221 7.1517,7.8741 7.7047,7.8741L13.2047,7.8741C13.7567,7.8741 14.2047,8.3221 14.2047,8.8741L14.2047,13.7091C14.2047,14.2611 13.7567,14.7091 13.2047,14.7091" fill="#000000" stroke="#000000" stroke-width="1.0" fill-opacity="0.29999998" stroke-opacity="0.29999998" />
  <path d="M17.7496,21.0001L6.7496,21.0001C4.9554,21.0001 3.4996,19.5443 3.4996,17.7501L3.4996,6.7501C3.4996,4.9552 4.9551,3.5001 6.7496,3.5001L17.7496,3.5001C19.5448,3.5001 20.9996,4.9549 20.9996,6.7501L20.9996,17.7501C20.9996,19.5446 19.5445,21.0001 17.7496,21.0001ZM17.7496,19.5001C18.716,19.5001 19.4996,18.7163 19.4996,17.7501L19.4996,6.7501C19.4996,5.7833 18.7164,5.0001 17.7496,5.0001L6.7496,5.0001C5.7834,5.0001 4.9996,5.7837 4.9996,6.7501L4.9996,17.7501C4.9996,18.7159 5.7838,19.5001 6.7496,19.5001L17.7496,19.5001Z" fill="#000000" stroke="#000000" stroke-width="1.0" fill-opacity="0.29999998" stroke-opacity="0.29999998" />
  <path d="M13.2047,14.7091L7.7047,14.7091C7.1517,14.7091 6.7047,14.2611 6.7047,13.7091L6.7047,8.8741C6.7047,8.3221 7.1517,7.8741 7.7047,7.8741L13.2047,7.8741C13.7567,7.8741 14.2047,8.3221 14.2047,8.8741L14.2047,13.7091C14.2047,14.2611 13.7567,14.7091 13.2047,14.7091" fill="#FCFCFF" stroke-width="1.0" />
  <path d="M17.7496,21.0001L6.7496,21.0001C4.9554,21.0001 3.4996,19.5443 3.4996,17.7501L3.4996,6.7501C3.4996,4.9552 4.9551,3.5001 6.7496,3.5001L17.7496,3.5001C19.5448,3.5001 20.9996,4.9549 20.9996,6.7501L20.9996,17.7501C20.9996,19.5446 19.5445,21.0001 17.7496,21.0001ZM17.7496,19.5001C18.716,19.5001 19.4996,18.7163 19.4996,17.7501L19.4996,6.7501C19.4996,5.7833 18.7164,5.0001 17.7496,5.0001L6.7496,5.0001C5.7834,5.0001 4.9996,5.7837 4.9996,6.7501L4.9996,17.7501C4.9996,18.7159 5.7838,19.5001 6.7496,19.5001L17.7496,19.5001Z" fill="#FCFCFF" stroke-width="1.0" />
</svg>