<?xml version="1.0" encoding="UTF-8"?>
<svg xmlns="http://www.w3.org/2000/svg" width="68.100006" height="68.100006" viewBox="0 0 24.0 24.0">
  <path d="M14.0291,8.517L9.5522,11.164C9.6209,11.435 9.656,11.7152 9.656,12C9.656,12.2848 9.6208,12.5653 9.5521,12.8365L14.0291,15.4831C14.6421,14.9477 15.4292,14.6455 16.2634,14.6455C18.1397,14.6455 19.6609,16.1668 19.6609,18.043C19.6609,19.9202 18.1405,21.4405 16.2634,21.4405C14.3861,21.4405 12.8649,19.92 12.8649,18.043C12.8649,17.758 12.9001,17.4775 12.9689,17.2062L8.4928,14.5601C7.8798,15.0964 7.0925,15.3993 6.2585,15.3993C4.383,15.3993 2.8609,13.8761 2.8609,12C2.8609,10.1242 4.3827,8.6024 6.2585,8.6024C7.0925,8.6024 7.8796,8.9049 8.4925,9.4406L12.9687,6.794C12.9,6.5233 12.8649,6.2433 12.8649,5.9589C12.8649,4.0809 14.3861,2.5595 16.2634,2.5595C18.1405,2.5595 19.6609,4.0807 19.6609,5.9589C19.6609,7.8336 18.1392,9.3545 16.2634,9.3545C15.4293,9.3545 14.6421,9.0523 14.0291,8.517ZM6.2585,10.6253C5.4999,10.6253 4.8838,11.2414 4.8838,12C4.8838,12.7591 5.5005,13.3765 6.2585,13.3765C7.0164,13.3765 7.6331,12.7591 7.6331,12C7.6331,11.2414 7.017,10.6253 6.2585,10.6253ZM16.2634,16.6683C15.504,16.6683 14.8878,17.2843 14.8878,18.043C14.8878,18.8027 15.5032,19.4177 16.2634,19.4177C17.0233,19.4177 17.638,18.803 17.638,18.043C17.638,17.284 17.0224,16.6683 16.2634,16.6683ZM16.2634,4.5823C15.5033,4.5823 14.8878,5.1981 14.8878,5.9589C14.8878,6.716 15.5043,7.3317 16.2634,7.3317C17.0221,7.3317 17.638,6.7163 17.638,5.9589C17.638,5.1978 17.0232,4.5823 16.2634,4.5823Z" fill="#FAFAFA" stroke="#000000" stroke-width="0.5" stroke-opacity="0.35" />
</svg>
