<?xml version="1.0" encoding="UTF-8"?>
<svg xmlns="http://www.w3.org/2000/svg" viewBox="0 0 24.0 24.0">
  <path d="M14.062,8.2072L9.259,11.047C9.3545,11.3476 9.406,11.6678 9.406,12C9.406,12.3323 9.3544,12.6527 9.2589,12.9535L14.0621,15.793C14.6298,15.2378 15.4067,14.8955 16.2634,14.8955C18.0017,14.8955 19.4109,16.305 19.4109,18.043C19.4109,19.7823 18.0023,21.1905 16.2634,21.1905C14.5244,21.1905 13.1149,19.7822 13.1149,18.043C13.1149,17.7105 13.1665,17.3901 13.2622,17.0892L8.4597,14.2502C7.892,14.8063 7.1151,15.1493 6.2585,15.1493C4.5209,15.1493 3.1109,13.7378 3.1109,12C3.1109,10.2623 4.5208,8.8524 6.2585,8.8524C7.115,8.8524 7.8919,9.195 8.4595,9.7505L13.2619,6.9111C13.1664,6.6106 13.1149,6.2907 13.1149,5.9589C13.1149,4.2188 14.5243,2.8095 16.2634,2.8095C18.0024,2.8095 19.4109,4.2187 19.4109,5.9589C19.4109,7.6954 18.0014,9.1045 16.2634,9.1045C15.4068,9.1045 14.6298,8.7622 14.062,8.2072ZM6.2585,10.3753C5.3618,10.3753 4.6338,11.1033 4.6338,12C4.6338,12.8971 5.3623,13.6265 6.2585,13.6265C7.1546,13.6265 7.8831,12.8971 7.8831,12C7.8831,11.1033 7.1551,10.3753 6.2585,10.3753ZM16.2634,16.4183C15.3659,16.4183 14.6378,17.1463 14.6378,18.043C14.6378,18.9409 15.3652,19.6677 16.2634,19.6677C17.1613,19.6677 17.888,18.9411 17.888,18.043C17.888,17.146 17.1606,16.4183 16.2634,16.4183ZM16.2634,4.3323C15.3654,4.3323 14.6378,5.0599 14.6378,5.9589C14.6378,6.8539 15.3661,7.5817 16.2634,7.5817C17.1604,7.5817 17.888,6.8542 17.888,5.9589C17.888,5.0596 17.1611,4.3323 16.2634,4.3323Z" fill="#aaa" stroke-width="1.0" />
</svg>
