<?xml version="1.0" encoding="UTF-8"?>
<svg xmlns="http://www.w3.org/2000/svg" width="153.225" height="153.225" viewBox="0 0 54.0 54.0">
  <path d="M17,18.429L17,35.571C17,37.456 18.558,39 20.462,39C22.365,39 23.923,37.456 23.923,35.571L23.923,18.429C23.923,16.544 22.365,15 20.462,15C18.558,15 17,16.544 17,18.429ZM33.538,15C31.635,15 30.077,16.544 30.077,18.429L30.077,35.571C30.077,37.456 31.635,39 33.538,39C35.442,39 37,37.456 37,35.571L37,18.429C37,16.544 35.442,15 33.538,15" fill="#FAFAFF" stroke-width="1.0" />
</svg>
