<?xml version="1.0" encoding="UTF-8"?>
<svg xmlns="http://www.w3.org/2000/svg" width="56.75" height="56.75" viewBox="0 0 20.0 20.0">
  <g>
    <path d="M13.01,10.2659L8.4749,13.1999C8.3565,13.2776 8.2343,13.3165 8.1121,13.3165C7.8421,13.3165 7.5683,13.1061 7.5683,12.7045L7.5683,6.7654C7.5683,6.3637 7.8421,6.1543 8.1121,6.1543C8.2343,6.1543 8.3565,6.1922 8.4749,6.2699L13.01,9.203C13.207,9.3318 13.3198,9.5251 13.3198,9.7345C13.3198,9.9448 13.207,10.138 13.01,10.2659Z" fill="#0000" stroke="#F9F9F9" stroke-width="1.6105263" />
    <path d="M18.4884,17.6926C18.4884,18.1303 18.1303,18.4884 17.6926,18.4884L2.3074,18.4884C1.8697,18.4884 1.5116,18.1303 1.5116,17.6926L1.5116,2.3074C1.5116,1.8697 1.8697,1.5116 2.3074,1.5116L17.6926,1.5116C18.1303,1.5116 18.4884,1.8697 18.4884,2.3074L18.4884,17.6926Z" fill="#0000" stroke="#F9F9F9" stroke-width="1.6105263" />
  </g>
</svg>
