<svg xmlns="http://www.w3.org/2000/svg" viewBox="0 0 24.0 24.0">
  <path d="M15.2849,9.3446C16.7954,10.7748 16.7954,13.0752 15.2849,14.5054C14.9841,14.7902 14.9711,15.2649 15.2559,15.5656C15.5407,15.8664 16.0154,15.8794 16.3161,15.5946C18.4516,13.5728 18.4516,10.2772 16.3161,8.2554C16.0154,7.9706 15.5407,7.9836 15.2559,8.2844C14.9711,8.5851 14.9841,9.0598 15.2849,9.3446Z" fill="#000000" stroke="#000000" stroke-width="1.0" fill-opacity="0.3" stroke-opacity="0.3" />
  <path d="M17.4266,6.4748C20.6777,9.4911 20.6777,14.3589 17.4266,17.3752C17.1229,17.6569 17.1052,18.1314 17.3869,18.4351C17.6686,18.7388 18.1431,18.7565 18.4468,18.4748C22.3377,14.8651 22.3377,8.9849 18.4468,5.3752C18.1431,5.0935 17.6686,5.1112 17.3869,5.4149C17.1052,5.7186 17.1229,6.1931 17.4266,6.4748Z" fill="#000000" stroke="#000000" stroke-width="1.0" fill-opacity="0.3" stroke-opacity="0.3" />
  <path d="M7.1073,8.1724L4.7504,8.1724C3.5075,8.1724 2.5004,9.1799 2.5004,10.4224L2.5004,13.4224C2.5004,14.6649 3.5075,15.6724 4.7504,15.6724L7.1042,15.6724L11.4856,19.3705C12.5653,20.3398 13.8344,19.7744 13.8344,18.3004L13.8344,5.5504C13.8344,4.0809 12.5726,3.513 11.4778,4.4859L7.1073,8.1724ZM12.3344,5.7257L12.3344,18.1245L7.8622,14.3493C7.7268,14.2351 7.5555,14.1724 7.3784,14.1724L4.7504,14.1724C4.336,14.1724 4.0004,13.8366 4.0004,13.4224L4.0004,10.4224C4.0004,10.0082 4.336,9.6724 4.7504,9.6724L7.3814,9.6724C7.5584,9.6724 7.7297,9.6098 7.865,9.4957L12.3344,5.7257Z" fill="#000000" stroke="#000000" stroke-width="1.0" fill-opacity="0.3" stroke-opacity="0.3" />
  <path d="M15.2849,9.3446C16.7954,10.7748 16.7954,13.0752 15.2849,14.5054C14.9841,14.7902 14.9711,15.2649 15.2559,15.5656C15.5407,15.8664 16.0154,15.8794 16.3161,15.5946C18.4516,13.5728 18.4516,10.2772 16.3161,8.2554C16.0154,7.9706 15.5407,7.9836 15.2559,8.2844C14.9711,8.5851 14.9841,9.0598 15.2849,9.3446Z" fill="#FCFCFC" stroke-width="1.0" />
  <path d="M17.4266,6.4748C20.6777,9.4911 20.6777,14.3589 17.4266,17.3752C17.1229,17.6569 17.1052,18.1314 17.3869,18.4351C17.6686,18.7388 18.1431,18.7565 18.4468,18.4748C22.3377,14.8651 22.3377,8.9849 18.4468,5.3752C18.1431,5.0935 17.6686,5.1112 17.3869,5.4149C17.1052,5.7186 17.1229,6.1931 17.4266,6.4748Z" fill="#FCFCFC" stroke-width="1.0" />
  <path d="M7.1073,8.1724L4.7504,8.1724C3.5075,8.1724 2.5004,9.1799 2.5004,10.4224L2.5004,13.4224C2.5004,14.6649 3.5075,15.6724 4.7504,15.6724L7.1042,15.6724L11.4856,19.3705C12.5653,20.3398 13.8344,19.7744 13.8344,18.3004L13.8344,5.5504C13.8344,4.0809 12.5726,3.513 11.4778,4.4859L7.1073,8.1724ZM12.3344,5.7257L12.3344,18.1245L7.8622,14.3493C7.7268,14.2351 7.5555,14.1724 7.3784,14.1724L4.7504,14.1724C4.336,14.1724 4.0004,13.8366 4.0004,13.4224L4.0004,10.4224C4.0004,10.0082 4.336,9.6724 4.7504,9.6724L7.3814,9.6724C7.5584,9.6724 7.7297,9.6098 7.865,9.4957L12.3344,5.7257Z" fill="#FCFCFC" stroke-width="1.0" />
</svg>