<svg xmlns="http://www.w3.org/2000/svg" viewBox="0 0 48.0 48.0">
  <path d="M34.1981,16.1063L26.6712,16.1063C26.0007,16.1063 25.0585,15.72 24.5784,15.2486L22.3097,13.0177C21.8296,12.5463 20.8874,12.16 20.2152,12.16L13.8552,12.16C11.6094,12.16 9.7867,13.9916 9.7867,16.252L9.7867,31.8014C9.7867,34.0618 11.6094,35.8933 13.8552,35.8933L34.1981,35.8933C36.4456,35.8933 38.2667,34.0618 38.2667,31.8014L38.2667,20.1982C38.2667,17.9378 36.4456,16.1063 34.1981,16.1063Z" fill="#0000" stroke="#92a6be" stroke-width="1.78" stroke-linecap="round" stroke-linejoin="round" />
  <path d="M16.6877,16.6075L19.0274,16.6075L19.0274,18.6272L16.6877,18.6272L16.6877,16.6075ZM16.6877,13.1489L19.0274,13.1489L19.0274,15.1686L16.6877,15.1686L16.6877,13.1489ZM16.6877,20.066L19.0274,20.066L19.0274,22.0834L16.6877,22.0834L16.6877,20.066ZM19.4571,27.0525C19.4571,27.9639 18.7385,28.6868 17.8564,28.6868C16.9766,28.6868 16.2556,27.9615 16.2556,27.0777L16.2556,25.1541C16.2556,24.2415 16.9766,23.5222 17.8564,23.5222C18.7385,23.5222 19.4571,24.2439 19.4571,25.1313L19.4571,27.0525Z" fill="#3b444f" stroke-width="1.0" />
</svg>